# AST/ASF file generated using VICON BodyLanguage
# -----------------------------------------------
:version 1.10
:name VICON
:units
  mass 1.0
  length 0.45
  angle deg
:documentation
   .ast/.asf automatically generated from VICON data using
   VICON BodyBuilder and BodyLanguage model FoxedUp or BRILLIANT.MOD
:root
   order TX TY TZ RX RY RZ
   axis XYZ
   position 0 0 0  
   orientation 0 0 0 
:bonedata
  begin
     id 1 
     name lhipjoint
     direction 0.822369 -0.411937 0.392449 
     length 3.8167 
     axis 0 0 0  XYZ
  end
  begin
     id 2 
     name lfemur
     direction 0.34202 -0.939693 0  
     length 6.16791  
     axis 0 0 20  XYZ
    dof rx ry rz
    limits (-160.0 20.0)
           (-70.0 70.0)
           (-60.0 70.0)
  end
  begin
     id 3 
     name ltibia
     direction 0.34202 -0.939693 0   
     length 7.07101   
     axis 0 0 20   XYZ
    dof rx
    limits (-10.0 170.0)
  end
  begin
     id 4 
     name lfoot
     direction 0.028254 -0.0776273 0.996582   
     length 1.66799   
     axis -90 7.62852e-016 20   XYZ
    dof rx rz
    limits (-45.0 90.0)
           (-70.0 20.0)
  end
  begin
     id 5 
     name ltoes
     direction 1.53483e-011 -4.21688e-011 1   
     length 0.851674   
     axis -90 7.62852e-016 20   XYZ
    dof rx
    limits (-90.0 20.0)
  end
  begin
     id 6 
     name rhipjoint
     direction -0.822466 -0.411836 0.392353   
     length 3.81764  
     axis 0 0 0  XYZ 
  end
  begin
     id 7 
     name rfemur
     direction -0.34202 -0.939693 0   
     length 6.28636   
     axis 0 0 -20   XYZ
    dof rx ry rz
    limits (-160.0 20.0)
           (-70.0 70.0)
           (-70.0 60.0)
  end
  begin
     id 8 
     name rtibia
     direction -0.34202 -0.939693 0   
     length 6.85621   
     axis 0 0 -20   XYZ
    dof rx
    limits (-10.0 170.0)
 end
 begin
     id 9 
     name rfoot
     direction -0.0553036 -0.151945 0.98684   
     length 1.57293  
     axis -90 -7.62852e-016 -20   XYZ
    dof rx rz
    limits (-45.0 90.0)
           (-20.0 70.0)
  end
  begin
     id 10 
     name rtoes
     direction -1.53592e-011 -4.21964e-011 1   
     length 0.802812   
     axis -90 -7.62852e-016 -20   XYZ
    dof rx
    limits (-90.0 20.0)
  end
  begin
     id 11 
     name lowerback
     direction 0.00654913 0.996475 -0.0836396   
     length 1.97212   
     axis 0 0 0   XYZ
    dof rx ry rz
    limits (-20.0 45.0)
           (-30.0 30.0)
           (-30.0 30.0)
  end
  begin
     id 12 
     name upperback
     direction 0.0111875 0.994527 0.103877   
     length 1.89704   
     axis 0 0 0   XYZ
    dof rx ry rz
    limits (-20.0 45.0)
           (-30.0 30.0)
           (-30.0 30.0)
  end
  begin
     id 13 
     name thorax
     direction 0.00473652 0.989004 0.147814   
     length 1.94516   
     axis 0 0 0   XYZ
    dof rx ry rz
    limits (-20.0 45.0)
           (-30.0 30.0)
           (-30.0 30.0)
  end
  begin
     id 14 
     name lowerneck
     direction -0.00925808 0.999011 0.0434791   
     length 1.81771   
     axis 0 0 0   XYZ
    dof rx ry rz
    limits (-20.0 45.0)
           (-30.0 30.0)
           (-30.0 30.0)
  end
  begin
     id 15 
     name upperneck
     direction 0.00451595 0.964412 -0.264365   
     length 1.80434   
     axis 0 0 0   XYZ
    dof rx ry rz
    limits (-20.0 45.0)
           (-30.0 30.0)
           (-30.0 30.0)
  end
  begin
     id 16
     name head
     direction -0.00110849 0.995756 -0.0920241  
     length 1.84006  
     axis 0 0 0   XYZ
    dof rx ry rz
    limits (-20.0 45.0)
           (-30.0 30.0)
           (-30.0 30.0)
  end
  begin
     id 17 
     name lclavicle
     direction 0.921253 0.385213 0.0538957  
     length 3.67415  
     axis 0 0 0   XYZ
    dof ry rz
    limits (-20.0 10.0)
           (0.0 20.0)
  end
  begin
     id 18 
     name lhumerus
     direction 1 -4.48961e-011 6.73441e-028   
     length 4.32712   
     axis 180 -30 -90   XYZ
    dof rx ry rz
    limits (-60.0 90.0)
           (-90.0 90.0)
           (-90.0 90.0)
  end
  begin
     id 19
     name lradius
     direction 1 -4.48985e-011 -9.53507e-028   
     length 3.28587   
     axis 180 -30 -90   XYZ
    dof rx
    limits (-10.0 170.0)
  end
  begin
     id 20
     name lwrist
     direction 1 -4.48951e-011 -4.67472e-027   
     length 1.64293   
     axis 1.65735e-015 90 90   XYZ
    dof ry
    limits (-180.0 0.0)
 end
  begin
     id 21 
     name lhand
     direction 1 -4.48946e-011 -9.34945e-027   
     length 0.433158   
     axis 5.96574e-015 90 90   XYZ
    dof rx rz
    limits (-90.0 90.0)
           (-45.0 45.0)
  end
  begin
     id 22 
     name lfingers
     direction 1 -4.48882e-011 -1.86989e-026   
     length 0.349224   
     axis 1.19315e-014 90 90   XYZ
    dof rx
    limits (0.0 90.0)
  end
  begin
     id 23
     name lthumb
     direction 0.707107 -6.3493e-011 0.707107   
     length 0.501417   
     axis -90 45 2.85299e-015   XYZ
    dof rx rz
    limits (-45.0 45.0)
           (-45.0 45.0)
  end
  begin
     id 24 
     name rclavicle
     direction -0.884378 0.46502 -0.0403866   
     length 3.50218  
     axis 0 0 0   XYZ 
    dof ry rz
    limits (-10.0 20.0)
           (-20.0 0.0)
  end
  begin
     id 25 
     name rhumerus
     direction -1 -4.48964e-011 1.58188e-027  
     length 4.29104   
     axis 180 30 90   XYZ
    dof rx ry rz
    limits (-90.0 60.0)
           (-90.0 90.0)
           (-90.0 90.0)
  end
  begin
     id 26 
     name rradius
     direction -1 -4.48978e-011 -1.9722e-027   
     length 3.2272   
     axis 180 30 90   XYZ
    dof rx
    limits (-10.0 170.0)
  end
  begin
     id 27 
     name rwrist
     direction -1 -4.48969e-011 -4.67472e-027   
     length 1.6136   
     axis 1.65735e-015 -90 -90   XYZ
    dof ry
    limits (-180.0 0.0)
  end
  begin
     id 28
     name rhand
     direction -1 -4.48846e-011 -9.34945e-027   
     length 0.543623   
     axis 5.96574e-015 -90 -90   XYZ
    dof rx rz
    limits (-90.0 90.0)
           (-45.0 45.0)
  end
  begin
     id 29
     name rfingers
     direction -1 -4.49074e-011 -1.86989e-026   
     length 0.438283   
     axis 1.19315e-014 -90 -90   XYZ
    dof rx
    limits (0.0 90.0)
  end
  begin
     id 30
     name rthumb
     direction -0.707107 -6.34834e-011 0.707107   
     length 0.629289   
     axis -90 -45 -2.85299e-015   XYZ
    dof rx rz
    limits (-45.0 45.0)
           (-45.0 45.0)
  end
:hierarchy
  begin
    root lhipjoint rhipjoint lowerback
    lhipjoint lfemur
    lfemur ltibia
    ltibia lfoot
    lfoot ltoes
    rhipjoint rfemur
    rfemur rtibia
    rtibia rfoot
    rfoot rtoes
    lowerback upperback
    upperback thorax
    thorax lowerneck lclavicle rclavicle
    lowerneck upperneck
    upperneck head
    lclavicle lhumerus
    lhumerus lradius
    lradius lwrist
    lwrist lhand lthumb
    lhand lfingers
    rclavicle rhumerus
    rhumerus rradius
    rradius rwrist
    rwrist rhand rthumb
    rhand rfingers
  end

#!OML:ASF H:\GeneralSubjects\Female5\Project 1\Capture day 1\Session 1\Female5.ASF
:FULLY-SPECIFIED
:DEGREES
91
root -13.0062 15.7361 -0.057887 -355.57 38.6313 -361.764
lowerback 12.6325 3.17233 2.35559
upperback -11.0946 5.09733 0.149186
thorax -19.9531 1.99135 -2.65263
lowerneck -10.8658 3.28366 9.19632
upperneck 40.7318 5.1707 -3.71041
head 17.0058 3.49725 -2.30699
rclavicle -2.57426e-014 1.36167e-014
rhumerus -54.0282 16.3675 -90.9885
rradius 33.5409
rwrist -10.4612
rhand -23.2293 -21.9088
rfingers 7.12502
rthumb 3.22165 -51.8642
lclavicle -2.57426e-014 1.36167e-014
lhumerus -55.1242 -3.94165 73.9101
lradius 34.4457
lwrist -0.463984
lhand -18.4523 30.0581
lfingers 7.12502
lthumb 7.83381 59.893
rfemur 7.03781 2.63563 28.0857
rtibia 35.7081
rfoot 10.4524 -10.4637
rtoes -6.23803
lfemur -22.6667 -17.553 -22.0865
ltibia 20.6285
lfoot -24.4007 0.0998226
ltoes -30.5958
92
root -12.7533 15.7731 0.0879002 -355.305 37.9234 -360.758
lowerback 12.969 3.17368 1.74534
upperback -10.9624 4.9193 -0.0839137
thorax -20.0444 1.96345 -2.55549
lowerneck -10.8082 3.50037 9.46608
upperneck 40.519 5.45301 -3.82777
head 16.9205 3.62739 -2.35815
rclavicle -5.06155e-014 6.06293e-015
rhumerus -53.998 16.1529 -90.7819
rradius 32.9744
rwrist -10.0954
rhand -23.6258 -21.6829
rfingers 7.12502
rthumb 2.83874 -51.6437
lclavicle -5.06155e-014 6.06293e-015
lhumerus -54.6689 -4.26874 74.2441
lradius 35.0023
lwrist -0.64355
lhand -15.5909 31.3622
lfingers 7.12502
lthumb 10.5948 61.0752
rfemur 4.71736 1.32993 26.0359
rtibia 39.9928
rfoot 13.6533 -12.4182
rtoes -8.34009
lfemur -20.3912 -17.6883 -23.8364
ltibia 19.6864
lfoot -24.9728 0.528276
ltoes -31.8773
93
root -12.5171 15.803 0.227982 -354.857 37.2518 -359.726
lowerback 13.2019 3.15415 1.12237
upperback -10.86 4.70202 -0.340298
thorax -20.1038 1.92037 -2.45963
lowerneck -10.7951 3.73774 9.64608
upperneck 40.3254 5.78066 -3.92209
head 16.8585 3.76502 -2.37412
rclavicle -4.49253e-014 -2.31584e-014
rhumerus -53.9735 16.1812 -90.782
rradius 32.7203
rwrist -9.9528
rhand -23.7286 -21.121
rfingers 7.12502
rthumb 2.73951 -51.0832
lclavicle -4.49253e-014 -2.31584e-014
lhumerus -54.2242 -4.56424 74.4429
lradius 35.6937
lwrist -0.571608
lhand -17.867 29.9564
lfingers 7.12502
lthumb 8.39871 59.7694
rfemur 1.98819 0.278196 24.2254
rtibia 44.3011
rfoot 14.3399 -15.2332
rtoes -7.33425
lfemur -18.4573 -17.754 -25.6632
ltibia 19.0757
lfoot -25.3905 -1.03286
ltoes -28.378
94
root -12.2995 15.8275 0.367801 -354.287 36.5577 -358.85
lowerback 13.3317 3.1366 0.459604
upperback -10.8569 4.48985 -0.547528
thorax -20.2338 1.89111 -2.28273
lowerneck -10.6232 3.97887 9.79109
upperneck 40.098 6.15246 -4.03631
head 16.743 3.9163 -2.3871
rclavicle -1.88597e-014 -1.94809e-014
rhumerus -54.0691 16.3469 -90.9368
rradius 32.714
rwrist -10.0269
rhand -23.7724 -20.5816
rfingers 7.12502
rthumb 2.6972 -50.5443
lclavicle -1.88597e-014 -1.94809e-014
lhumerus -53.8053 -4.88406 74.5297
lradius 36.3666
lwrist -0.397725
lhand -20.7129 28.675
lfingers 7.12502
lthumb 5.6515 58.5797
rfemur -1.18911 -0.895217 22.7928
rtibia 48.2916
rfoot 14.6069 -18.9598
rtoes -2.00008
lfemur -16.9575 -17.7741 -27.148
ltibia 18.5755
lfoot -25.7211 -3.22871
ltoes -23.8157
95
root -12.0942 15.8479 0.506696 -353.73 35.8038 -358.144
lowerback 13.5314 3.14316 -0.187876
upperback -10.934 4.32514 -0.7046
thorax -20.5231 1.88334 -2.07933
lowerneck -10.4148 4.19388 9.88535
upperneck 39.9135 6.4787 -4.08097
head 16.6333 4.05359 -2.36906
rclavicle 9.82493e-014 1.13307e-014
rhumerus -54.4152 16.5847 -91.2071
rradius 33.1284
rwrist -10.3063
rhand -24.0844 -20.8638
rfingers 7.12502
rthumb 2.39588 -50.8301
lclavicle 9.82493e-014 1.13307e-014
lhumerus -53.3215 -4.9636 74.3236
lradius 37.0134
lwrist -0.717948
lhand -20.8219 29.5045
lfingers 7.12502
lthumb 5.5463 59.4119
rfemur -4.87007 -2.17233 21.7731
rtibia 52.0057
rfoot 5.86416 -21.3112
rtoes 1.198
lfemur -15.6741 -17.4355 -28.4026
ltibia 18.0473
lfoot -26.0874 -1.89584
ltoes -29.3922
96
root -11.8938 15.8662 0.642345 -353.274 35.0352 -357.808
lowerback 13.5605 3.13454 -0.51553
upperback -11.0074 4.22866 -0.761573
thorax -20.6686 1.87782 -1.94238
lowerneck -10.2661 4.43733 9.99867
upperneck 39.7372 6.86202 -4.18913
head 16.5547 4.20847 -2.37197
rclavicle 1.48095e-014 2.14687e-014
rhumerus -54.6142 16.7323 -91.2608
rradius 33.6151
rwrist -10.3846
rhand -24.1642 -20.9165
rfingers 7.12502
rthumb 2.31873 -50.8836
lclavicle 1.48095e-014 2.14687e-014
lhumerus -52.6602 -4.69633 73.9366
lradius 37.5996
lwrist -1.15732
lhand -20.8689 30.4061
lfingers 7.12502
lthumb 5.50092 60.3147
rfemur -9.01021 -3.17851 21.439
rtibia 55.2688
rfoot -0.876527 -22.525
rtoes -0.15731
lfemur -14.5426 -16.9973 -29.2692
ltibia 17.4182
lfoot -26.7314 0.118043
ltoes -35.8882
97
root -11.7 15.8855 0.781452 -353.024 34.2814 -357.929
lowerback 13.4536 3.11851 -0.526869
upperback -11.064 4.21818 -0.688665
thorax -20.6793 1.88406 -1.84211
lowerneck -10.2456 4.7328 10.1969
upperneck 39.6383 7.34268 -4.41157
head 16.5743 4.40193 -2.42099
rclavicle 4.61429e-014 1.65985e-014
rhumerus -54.6505 16.8494 -91.1659
rradius 34.0297
rwrist -10.4688
rhand -23.9209 -20.4316
rfingers 7.12502
rthumb 2.55377 -50.3961
lclavicle 4.61429e-014 1.65985e-014
lhumerus -51.9015 -4.48117 73.6424
lradius 38.1916
lwrist -0.901514
lhand -22.0851 29.9931
lfingers 7.12502
lthumb 4.32659 59.9289
rfemur -13.0092 -3.90008 21.7755
rtibia 57.2054
rfoot -6.68938 -22.5527
rtoes 0.995545
lfemur -13.4397 -16.8866 -29.5721
ltibia 16.5369
lfoot -27.6263 -1.25588
ltoes -32.0494
98
root -11.5091 15.9065 0.930466 -352.918 33.6001 -358.028
lowerback 13.5769 3.13963 -0.532092
upperback -11.1267 4.246 -0.692192
thorax -20.8516 1.8914 -1.86482
lowerneck -10.298 4.94856 10.43
upperneck 39.676 7.66293 -4.54949
head 16.6687 4.54825 -2.46549
rclavicle 1.03617e-014 6.16232e-015
rhumerus -54.883 16.7647 -91.2047
rradius 34.5815
rwrist -10.9616
rhand -23.9954 -20.3183
rfingers 7.12502
rthumb 2.48178 -50.2836
lclavicle 1.03617e-014 6.16232e-015
lhumerus -51.1859 -4.58637 73.3594
lradius 38.8363
lwrist -0.16362
lhand -21.9295 32.1681
lfingers 7.12502
lthumb 4.47686 62.1008
rfemur -16.4583 -4.57591 22.1937
rtibia 57.7775
rfoot -11.5135 -21.4006
rtoes -1.89376
lfemur -11.9331 -16.9184 -30.0724
ltibia 15.4623
lfoot -28.3746 -2.19172
ltoes -30.255
99
root -11.3197 15.9248 1.08511 -352.819 32.9694 -357.823
lowerback 13.8182 3.16293 -0.723959
upperback -11.1007 4.21003 -0.792717
thorax -20.9935 1.88512 -1.88254
lowerneck -10.3987 5.15688 10.7241
upperneck 39.626 7.94442 -4.70824
head 16.7305 4.67981 -2.53462
rclavicle 7.44697e-014 1.37161e-014
rhumerus -54.9547 16.3536 -91.0542
rradius 35.0489
rwrist -11.1608
rhand -24.3678 -19.9373
rfingers 7.12502
rthumb 2.12211 -49.9065
lclavicle 7.44697e-014 1.37161e-014
lhumerus -50.4807 -4.65658 73.0334
lradius 39.4303
lwrist 0.690957
lhand -24.144 30.0293
lfingers 7.12502
lthumb 2.33829 59.9962
rfemur -19.4834 -5.14929 22.3831
rtibia 57.3016
rfoot -14.121 -20.1714
rtoes -8.75085
lfemur -10.0146 -17.3651 -30.9829
ltibia 14.1357
lfoot -29.499 -1.11264
ltoes -33.0889
100
root -11.1359 15.938 1.2409 -352.841 32.334 -357.66
lowerback 14.0377 3.13315 -0.952294
upperback -10.9749 4.10777 -0.771764
thorax -20.9978 1.872 -1.70613
lowerneck -10.4813 5.51941 11.0317
upperneck 39.3856 8.47246 -4.94329
head 16.7224 4.89904 -2.59272
rclavicle -1.63749e-014 -3.20043e-014
rhumerus -54.7476 16.07 -90.6314
rradius 35.3843
rwrist -10.8788
rhand -24.0964 -19.0059
rfingers 7.12502
rthumb 2.38428 -48.9723
lclavicle -1.63749e-014 -3.20043e-014
lhumerus -49.7112 -4.39039 72.7477
lradius 39.8692
lwrist 1.3595
lhand -25.3589 29.4747
lfingers 7.12502
lthumb 1.16489 59.4512
rfemur -22.1812 -5.29625 22.7035
rtibia 55.9019
rfoot -14.7279 -18.9993
rtoes -12.8757
lfemur -7.97335 -17.8481 -31.9073
ltibia 12.8212
lfoot -30.5916 -0.904332
ltoes -33.6474
101
root -10.9541 15.9462 1.39893 -353.002 31.8552 -357.626
lowerback 14.2987 3.03755 -1.04013
upperback -10.8251 3.95607 -0.692533
thorax -20.9905 1.82359 -1.52319
lowerneck -10.1775 5.76226 10.8515
upperneck 38.967 8.8927 -4.9666
head 16.4602 5.03544 -2.50047
rclavicle -1.59276e-014 4.96962e-016
rhumerus -54.5782 15.9659 -90.2884
rradius 35.7632
rwrist -10.9429
rhand -23.6692 -18.6284
rfingers 7.12502
rthumb 2.79684 -48.5898
lclavicle -1.59276e-014 4.96962e-016
lhumerus -49.1676 -4.15697 72.5284
lradius 40.5788
lwrist 1.79097
lhand -25.6353 30.1616
lfingers 7.12502
lthumb 0.898001 60.1395
rfemur -24.4334 -5.08066 23.1283
rtibia 53.5842
rfoot -14.5296 -18.5525
rtoes -16.0235
lfemur -6.0225 -18.0979 -32.6782
ltibia 11.7155
lfoot -31.1193 -2.58552
ltoes -30.5868
102
root -10.7776 15.9436 1.55998 -353.079 31.3159 -357.492
lowerback 14.5603 3.02234 -1.26456
upperback -10.714 3.87295 -0.678507
thorax -21.0418 1.81649 -1.3657
lowerneck -10.0648 5.92401 10.9775
upperneck 38.7803 9.20206 -5.23038
head 16.398 5.14332 -2.58548
rclavicle 7.89175e-014 6.16232e-015
rhumerus -54.6064 15.8483 -90.1588
rradius 36.2184
rwrist -11.5769
rhand -23.7184 -18.2546
rfingers 7.12502
rthumb 2.7493 -48.2166
lclavicle 7.89175e-014 6.16232e-015
lhumerus -48.9209 -4.21944 72.4014
lradius 41.5937
lwrist 2.23943
lhand -25.9064 30.4686
lfingers 7.12502
lthumb 0.636133 60.4474
rfemur -26.5215 -4.38842 23.3526
rtibia 50.66
rfoot -15.1042 -18.5289
rtoes -17.9701
lfemur -4.37283 -17.584 -33.4064
ltibia 10.8438
lfoot -31.4188 -3.00232
ltoes -30.7848
103
root -10.602 15.9373 1.72414 -353.059 30.8198 -357.189
lowerback 14.8022 3.02915 -1.63338
upperback -10.633 3.77512 -0.722709
thorax -21.1271 1.81728 -1.19256
lowerneck -9.95944 6.10742 11.1291
upperneck 38.6129 9.49352 -5.37658
head 16.3421 5.26377 -2.62499
rclavicle -1.30949e-014 3.97569e-016
rhumerus -54.6895 15.649 -90.0628
rradius 36.5707
rwrist -12.0994
rhand -23.578 -17.5756
rfingers 7.12502
rthumb 2.88494 -47.5358
lclavicle -1.30949e-014 3.97569e-016
lhumerus -48.686 -4.51262 72.4017
lradius 42.4786
lwrist 2.72245
lhand -26.2906 30.0346
lfingers 7.12502
lthumb 0.265044 60.0142
rfemur -28.289 -3.37651 23.1956
rtibia 47.1959
rfoot -17.263 -17.6942
rtoes -14.1077
lfemur -2.69839 -17.3393 -34.3699
ltibia 9.9612
lfoot -31.9832 -3.09093
ltoes -31.4478
104
root -10.4243 15.9287 1.89443 -352.932 30.4296 -356.845
lowerback 14.8783 3.01046 -1.8979
upperback -10.5766 3.65641 -0.847883
thorax -21.1135 1.78784 -1.15749
lowerneck -9.84368 6.34121 11.3299
upperneck 38.4554 9.79943 -5.38448
head 16.2872 5.41587 -2.60867
rclavicle -1.43373e-014 -1.95803e-014
rhumerus -54.7443 15.3875 -90.0142
rradius 36.8694
rwrist -12.428
rhand -23.4227 -18.004
rfingers 7.12502
rthumb 3.03491 -47.9621
lclavicle -1.43373e-014 -1.95803e-014
lhumerus -48.4674 -5.05642 72.4645
lradius 43.3383
lwrist 3.05469
lhand -26.2968 29.9039
lfingers 7.12502
lthumb 0.259089 59.8834
rfemur -29.6922 -2.06096 22.7423
rtibia 43.106
rfoot -19.1675 -17.5585
rtoes -10.7715
lfemur -1.0617 -17.2683 -35.3842
ltibia 9.03429
lfoot -32.4722 -4.43636
ltoes -29.0253
105
root -10.2474 15.9143 2.07066 -352.68 30.1183 -356.424
lowerback 14.7761 2.96446 -2.14159
upperback -10.503 3.5009 -1.02301
thorax -20.945 1.73707 -1.16883
lowerneck -9.69843 6.57528 11.8204
upperneck 38.1747 10.1173 -5.64234
head 16.2058 5.58058 -2.74965
rclavicle 4.57205e-014 4.67144e-014
rhumerus -54.7834 15.2226 -90.0694
rradius 37.1048
rwrist -12.7522
rhand -23.4976 -18.7555
rfingers 7.12502
rthumb 2.96258 -48.7147
lclavicle 4.57205e-014 4.67144e-014
lhumerus -48.1652 -5.5879 72.5257
lradius 44.0052
lwrist 3.07602
lhand -26.2743 29.8665
lfingers 7.12502
lthumb 0.280779 59.846
rfemur -30.7938 -0.38307 21.9219
rtibia 38.4102
rfoot -20.0091 -18.6777
rtoes -11.4901
lfemur 0.379363 -17.1266 -36.3768
ltibia 8.0441
lfoot -32.9272 -2.10139
ltoes -32.8487
